<svg xmlns="http://www.w3.org/2000/svg" width="672.179" height="27.353" viewBox="0 0 672.179 27.353">
  <g id="Logo" transform="translate(-170 -634)">
    <path id="Vector" d="M94.178,9.1V7.44H92.121V4.865l-.069.021-1.97.6V7.44H87.033V6.352A1.726,1.726,0,0,1,87.369,5.2a1.186,1.186,0,0,1,.942-.385,2.2,2.2,0,0,1,.894.2l.076.034V3.309L89.245,3.3A3.484,3.484,0,0,0,88.1,3.144a3.348,3.348,0,0,0-1.62.389,2.77,2.77,0,0,0-1.112,1.1,3.277,3.277,0,0,0-.394,1.613V7.44H83.545V9.1h1.432v6.977h2.056V9.1h3.049v4.433c0,1.828.861,2.752,2.56,2.752a4.2,4.2,0,0,0,.873-.1,2.412,2.412,0,0,0,.636-.2l.027-.016V14.294l-.084.055a1.44,1.44,0,0,1-.413.178,1.571,1.571,0,0,1-.406.069,1.1,1.1,0,0,1-.875-.319,1.717,1.717,0,0,1-.279-1.106V9.1ZM78.953,14.6a2.181,2.181,0,0,1-1.749-.735,3.12,3.12,0,0,1-.629-2.075A3.244,3.244,0,0,1,77.2,9.657a2.146,2.146,0,0,1,1.732-.747,2.114,2.114,0,0,1,1.687.713,3.18,3.18,0,0,1,.616,2.113,3.391,3.391,0,0,1-.579,2.14,2.066,2.066,0,0,1-1.706.722Zm.091-7.37a4.509,4.509,0,0,0-3.36,1.24,4.65,4.65,0,0,0-1.214,3.385,4.4,4.4,0,0,0,1.185,3.231,4.3,4.3,0,0,0,3.181,1.194,4.386,4.386,0,0,0,3.294-1.257,4.636,4.636,0,0,0,1.214-3.351,4.523,4.523,0,0,0-1.139-3.254A4.195,4.195,0,0,0,79.045,7.23Zm-7.89,0a3.717,3.717,0,0,0-2.382.736,2.349,2.349,0,0,0-.928,1.917,2.68,2.68,0,0,0,.2,1.07,2.151,2.151,0,0,0,.614.8,5.349,5.349,0,0,0,1.248.7,9.311,9.311,0,0,1,1.039.484,1.445,1.445,0,0,1,.458.376.844.844,0,0,1,.127.49c0,.579-.434.862-1.328.862a3.652,3.652,0,0,1-1.124-.205,4.222,4.222,0,0,1-1.151-.583l-.086-.061V15.8l.031.015a5.093,5.093,0,0,0,1.09.337,5.846,5.846,0,0,0,1.164.134,3.946,3.946,0,0,0,2.514-.74,2.395,2.395,0,0,0,.936-1.961,2.255,2.255,0,0,0-.5-1.483,4.317,4.317,0,0,0-1.711-1.09,4.413,4.413,0,0,1-1.219-.634.887.887,0,0,1-.246-.665.741.741,0,0,1,.312-.615,1.4,1.4,0,0,1,.875-.247A3.582,3.582,0,0,1,72.127,9a3.347,3.347,0,0,1,.91.422l.084.058V7.608l-.032-.014a4.485,4.485,0,0,0-.924-.258,5.638,5.638,0,0,0-1.013-.1ZM62.486,14.6a2.181,2.181,0,0,1-1.749-.735,3.12,3.12,0,0,1-.628-2.073,3.243,3.243,0,0,1,.629-2.131,2.145,2.145,0,0,1,1.732-.747,2.114,2.114,0,0,1,1.687.713,3.18,3.18,0,0,1,.616,2.113,3.391,3.391,0,0,1-.579,2.14,2.062,2.062,0,0,1-1.706.721Zm.092-7.368a4.508,4.508,0,0,0-3.36,1.24A4.65,4.65,0,0,0,58,11.855a4.4,4.4,0,0,0,1.186,3.231A4.3,4.3,0,0,0,62.37,16.28a4.386,4.386,0,0,0,3.294-1.257,4.636,4.636,0,0,0,1.214-3.351,4.523,4.523,0,0,0-1.139-3.254,4.195,4.195,0,0,0-3.161-1.186Zm-7.7,1.7V7.44H52.851v8.634h2.031V11.656a3.078,3.078,0,0,1,.506-1.834A1.553,1.553,0,0,1,56.7,9.129a2.385,2.385,0,0,1,.611.089,1.545,1.545,0,0,1,.473.192l.086.062V7.425l-.033-.014a2.1,2.1,0,0,0-.8-.121,2.081,2.081,0,0,0-1.358.487,2.751,2.751,0,0,0-.781,1.159Zm-5.668-1.7a5.013,5.013,0,0,0-2.469.594A4,4,0,0,0,45.116,9.5a5.334,5.334,0,0,0-.559,2.481,4.577,4.577,0,0,0,.544,2.224,3.821,3.821,0,0,0,1.52,1.536,4.524,4.524,0,0,0,2.22.54,4.861,4.861,0,0,0,2.452-.574l.027-.015V13.832l-.086.062a3.817,3.817,0,0,1-.994.518,3,3,0,0,1-.973.189,2.5,2.5,0,0,1-1.9-.741,2.882,2.882,0,0,1-.7-2.053A2.99,2.99,0,0,1,47.4,9.7a2.487,2.487,0,0,1,1.9-.786,3.262,3.262,0,0,1,1.933.673l.085.062V7.686l-.028-.016a3.351,3.351,0,0,0-.94-.318,5.612,5.612,0,0,0-1.135-.122Zm-6.055.208H41.128v8.634h2.031Zm-.994-3.678A1.224,1.224,0,0,0,41.3,4.1a1.119,1.119,0,0,0-.362.847,1.088,1.088,0,0,0,.357.83,1.237,1.237,0,0,0,.869.331,1.253,1.253,0,0,0,.873-.33,1.084,1.084,0,0,0,.363-.831,1.141,1.141,0,0,0-.353-.838,1.212,1.212,0,0,0-.883-.349ZM37.1,6.8v9.272h2.073V4.026H36.3l-3.646,8.948L29.115,4.026H26.128V16.073h1.948V6.8h.067l3.736,9.272H33.35L37.029,6.8Z" transform="translate(748 638)" fill="#666"/>
    <path id="Vector-2" data-name="Vector" d="M9.554,9.554H0V0H9.554Z" transform="translate(748 638)" fill="#666"/>
    <path id="Vector-3" data-name="Vector" d="M20.1,9.554H10.549V0H20.1Z" transform="translate(748 638)" fill="#666"/>
    <path id="Vector-4" data-name="Vector" d="M9.554,20.106H0V10.552H9.554Z" transform="translate(748 638)" fill="#666"/>
    <path id="Vector-5" data-name="Vector" d="M20.1,20.106H10.549V10.552H20.1Z" transform="translate(748 638)" fill="#666"/>
    <path id="Vector-6" data-name="Vector" d="M12.175,0h2.884V9.352c0,4.921-3.076,6.648-7.538,6.648C3.076,16,0,14.273,0,9.352V.375C0,.114.127,0,.382,0H3.267V9.206c0,2.949,1.275,4.171,4.255,4.171,3,0,4.271-1.222,4.271-4.171V.375C11.793.114,11.92,0,12.175,0ZM44.828,2.558V6.5h7.3c.127,0,.175.065.127.2l-.8,2.02a.4.4,0,0,1-.43.261H46.74c-1.4,0-1.912.44-1.912,1.4v2.786h9.88c.127,0,.175.065.127.2l-.829,2.1a.4.4,0,0,1-.43.261H42.756c-.829,0-1.147-.293-1.147-.929V1.092c0-.766.414-1.092,1.5-1.092h11.6c.127,0,.175.065.127.179L54.007,2.3a.4.4,0,0,1-.43.261Zm-9.163,8.815c0,3.145-2.167,4.35-5.211,4.35H22.39c-.845,0-1.147-.293-1.147-.929V1.092c0-.766.4-1.092,1.5-1.092h6.55c2.868,0,5.641.505,5.641,3.992A3.613,3.613,0,0,1,33.147,7.43C34.884,7.9,35.665,9.5,35.665,11.373ZM24.414,6.55h5.115c1.689,0,2.167-.668,2.167-2.037s-.478-2.02-2.167-2.02H24.414Zm8.016,4.53c0-1.45-.494-2.167-2.311-2.167H26.342c-1.4,0-1.928.44-1.928,1.4V13.23h5.705C31.936,13.23,32.43,12.513,32.43,11.079Zm42.39,4.644H71.887a.434.434,0,0,1-.43-.261L68.349,9.727H65.5c-1.4,0-1.928.44-1.928,1.4v4.595h-2.8a.337.337,0,0,1-.382-.375V1.092C60.381.326,60.8,0,61.879,0h6.582c3.841,0,6.151,1.026,6.151,4.839,0,2.949-1.386,4.106-3.108,4.562l3.458,6.045C75.026,15.544,75.026,15.723,74.819,15.723ZM71.377,4.9c0-1.6-.43-2.379-2.438-2.379h-5.37V7.283h5.37C70.947,7.283,71.377,6.517,71.377,4.9Z" transform="translate(593 640)" fill="#666"/>
    <path id="Union" d="M14.449,5.719A5.481,5.481,0,0,1,18.824,4c3.059.016,5.895,2.063,5.829,5.586a6.742,6.742,0,0,1-.082.933c.818-2.2,4.859-2.5,6.066-2.511.71,0,2.84-.008,2.84-.008.011-1.43-.442-2.387-2.922-2.43C28.441,5.531,27.9,6.586,27.77,7H25.18c.66-3.4,5.543-2.984,5.543-2.984,5.087.2,5.212,2.815,5.27,4.047L36,8.195V15l-2.254.012-.1-1.832c-.961,1.16-2.254,1.808-4.524,1.82-2.21.011-5.017-.906-4.695-3.82-.7,2.492-2.937,3.82-5.653,3.82-3.245,0-4.355-1.734-4.355-1.734L14.316,15H12V10H2.441A3.6,3.6,0,0,0,6.07,13.464c2.715.048,3.207-1.78,3.207-1.78l2.508-.008S11.519,15,6.059,15C-.293,15,0,9.7,0,9.7-.027,8.527,0,4,6,4c5.025,0,5.881,3.43,6,5.1V0h2.449Zm.016,3.824s-.063,3.934,3.8,3.887a3.775,3.775,0,0,0,3.867-3.805s.058-4.148-3.875-4.051A3.763,3.763,0,0,0,14.465,9.543ZM6.148,5.551A3.3,3.3,0,0,0,2.523,8.516H9.586S9.586,5.547,6.148,5.551Zm20.8,6.094c.145,1.871,2.6,1.867,2.6,1.867,4.4.054,3.953-3.949,3.956-3.949l-2.78,0S26.793,9.648,26.945,11.645Z" transform="translate(465 638)" fill="#666"/>
    <path id="Union-2" data-name="Union" d="M34.438,4h2.8l4.106,8.184L45.465,4H48L40.574,19H37.86l2.149-4.465Z" transform="translate(465 638)" fill="#666"/>
    <path id="Vector-7" data-name="Vector" d="M34.011,20a3.834,3.834,0,0,0-1.844-.464,2.32,2.32,0,1,0,0,4.637,3.885,3.885,0,0,0,1.844-.461v2.332a7.038,7.038,0,0,1-2,.309,4.5,4.5,0,1,1,0-9,6.668,6.668,0,0,1,2,.312ZM11.128,20a3.809,3.809,0,0,0-1.842-.464,2.32,2.32,0,1,0,0,4.637,3.859,3.859,0,0,0,1.842-.461v2.332a7,7,0,0,1-2,.309,4.5,4.5,0,1,1,0-9,6.643,6.643,0,0,1,2,.312Zm29.78-.431a2.248,2.248,0,1,0,.875.169A2.246,2.246,0,0,0,40.908,19.568ZM45.5,21.853a4.59,4.59,0,1,1-4.591-4.5A4.461,4.461,0,0,1,45.5,21.853ZM24.648,19.485a7.508,7.508,0,0,0-1.714-.265c-.878,0-1.356.294-1.356.712,0,.529.644.714,1,.828l.6.192a2.613,2.613,0,0,1,2.071,2.485c0,2.183-1.919,2.916-3.6,2.916a13.165,13.165,0,0,1-2.366-.237v-2a8.212,8.212,0,0,0,2.07.324c1.091,0,1.592-.319,1.592-.811,0-.44-.434-.694-.978-.865-.132-.044-.332-.107-.468-.151-1.221-.386-2.239-1.1-2.239-2.542,0-1.625,1.217-2.716,3.237-2.716a9.39,9.39,0,0,1,2.137.276Z" transform="translate(335 635)" fill="#666"/>
    <path id="Vector-8" data-name="Vector" d="M16.334,26.2H14.141V17.51h2.192Z" transform="translate(335 635)" fill="#666"/>
    <path id="Vector-9" data-name="Vector" d="M1.857,7.406a1.087,1.087,0,0,1,.32.767v2.281a1.089,1.089,0,0,1-2.177,0V8.173a1.089,1.089,0,0,1,1.857-.766Z" transform="translate(335 635)" fill="#666"/>
    <path id="Vector-10" data-name="Vector" d="M8.073,4.764a1.089,1.089,0,0,1,.083.417v5.274a1.089,1.089,0,1,1-2.177,0V5.181a1.089,1.089,0,0,1,2.094-.417Z" transform="translate(335 635)" fill="#666"/>
    <path id="Vector-11" data-name="Vector" d="M13.815.318a1.088,1.088,0,0,1,.32.767V12.622a1.089,1.089,0,0,1-2.177,0V1.085A1.089,1.089,0,0,1,13.815.318Z" transform="translate(335 635)" fill="#666"/>
    <path id="Vector-12" data-name="Vector" d="M20.03,4.764a1.088,1.088,0,0,1,.083.417v5.273a1.089,1.089,0,1,1-2.177,0V5.18a1.088,1.088,0,0,1,2.094-.416Z" transform="translate(335 635)" fill="#666"/>
    <path id="Vector-13" data-name="Vector" d="M25.768,7.407a1.083,1.083,0,0,1,.317.766v2.281a1.085,1.085,0,1,1-2.17,0V8.173a1.086,1.086,0,0,1,1.854-.765Z" transform="translate(335 635)" fill="#666"/>
    <path id="Vector-14" data-name="Vector" d="M31.739,4.431a1.085,1.085,0,0,1,.327.75v5.274a1.085,1.085,0,0,1-2.17,0V5.181a1.085,1.085,0,0,1,1.843-.75Z" transform="translate(335 635)" fill="#666"/>
    <path id="Vector-15" data-name="Vector" d="M37.731.318a1.085,1.085,0,0,1,.318.767V12.622a1.086,1.086,0,1,1-2.17,0V1.085A1.085,1.085,0,0,1,37.731.318Z" transform="translate(335 635)" fill="#666"/>
    <path id="Vector-16" data-name="Vector" d="M43.945,4.763a1.088,1.088,0,0,1,.085.418v5.274a1.092,1.092,0,1,1-2.183,0V5.18a1.092,1.092,0,0,1,2.1-.417Z" transform="translate(335 635)" fill="#666"/>
    <path id="Vector-17" data-name="Vector" d="M49.682,7.405A1.086,1.086,0,0,1,50,8.173v2.281a1.086,1.086,0,1,1-2.171,0V8.173a1.086,1.086,0,0,1,1.854-.768Z" transform="translate(335 635)" fill="#666"/>
    <path id="Vector-18" data-name="Vector" d="M48.745,25.19h-.387" transform="translate(335 635)" fill="#666"/>
    <path id="Vector-19" data-name="Vector" d="M48.357,25.19V26.2" transform="translate(335 635)" fill="#666"/>
    <path id="Vector-20" data-name="Vector" d="M48.357,26.2H48.2" transform="translate(335 635)" fill="#666"/>
    <path id="Vector-21" data-name="Vector" d="M48.2,26.2V25.191" transform="translate(335 635)" fill="#666"/>
    <path id="Vector-22" data-name="Vector" d="M48.2,25.191h-.389" transform="translate(335 635)" fill="#666"/>
    <path id="Vector-23" data-name="Vector" d="M47.809,25.191v-.137" transform="translate(335 635)" fill="#666"/>
    <path id="Vector-24" data-name="Vector" d="M47.809,25.054h.936" transform="translate(335 635)" fill="#666"/>
    <path id="Vector-25" data-name="Vector" d="M49.075,25.054l.342.938" transform="translate(335 635)" fill="#666"/>
    <path id="Vector-26" data-name="Vector" d="M49.418,25.992h.006" transform="translate(335 635)" fill="#666"/>
    <path id="Vector-27" data-name="Vector" d="M49.423,25.992l.331-.938" transform="translate(335 635)" fill="#666"/>
    <path id="Vector-28" data-name="Vector" d="M49.755,25.054H50" transform="translate(335 635)" fill="#666"/>
    <path id="Vector-29" data-name="Vector" d="M50,25.054V26.2" transform="translate(335 635)" fill="#666"/>
    <path id="Vector-30" data-name="Vector" d="M50,26.2h-.163" transform="translate(335 635)" fill="#666"/>
    <path id="Vector-31" data-name="Vector" d="M49.836,26.2V25.26" transform="translate(335 635)" fill="#666"/>
    <path id="Vector-32" data-name="Vector" d="M49.836,25.26H49.83" transform="translate(335 635)" fill="#666"/>
    <path id="Vector-33" data-name="Vector" d="M49.83,25.26l-.347.937" transform="translate(335 635)" fill="#666"/>
    <path id="Vector-34" data-name="Vector" d="M49.483,26.2h-.15" transform="translate(335 635)" fill="#666"/>
    <path id="Vector-35" data-name="Vector" d="M49.333,26.2l-.339-.937" transform="translate(335 635)" fill="#666"/>
    <path id="Vector-36" data-name="Vector" d="M48.993,25.26h-.008" transform="translate(335 635)" fill="#666"/>
    <path id="Vector-37" data-name="Vector" d="M48.986,25.26V26.2" transform="translate(335 635)" fill="#666"/>
    <path id="Vector-38" data-name="Vector" d="M48.986,26.2h-.16" transform="translate(335 635)" fill="#666"/>
    <path id="Vector-39" data-name="Vector" d="M48.826,26.2V25.054" transform="translate(335 635)" fill="#666"/>
    <path id="Vector-40" data-name="Vector" d="M49.075,25.054l.342.938h.006l.331-.938H50V26.2h-.163V25.26H49.83l-.347.937h-.15l-.339-.937h-.008V26.2h-.16V25.054Z" transform="translate(335 635)" fill="#666"/>
    <path id="Vector-41" data-name="Vector" d="M48.745,25.19h-.387V26.2H48.2V25.191h-.389v-.137h.936Z" transform="translate(335 635)" fill="#666"/>
    <path id="Vector-42" data-name="Vector" d="M44.8,6.705a1.726,1.726,0,1,1-1.726-1.736A1.728,1.728,0,0,1,44.8,6.705Zm-7.117,3.5v.427a3.309,3.309,0,0,0-2.576-1.069,5.1,5.1,0,0,0-5.152,5.289,5.1,5.1,0,0,0,5.152,5.289,3.218,3.218,0,0,0,2.576-1.1V19.5a.364.364,0,0,0,.372.374H40.2V9.83H38.053a.383.383,0,0,0-.372.375Zm0,6.437a2.633,2.633,0,0,1-2.151,1.1,2.789,2.789,0,0,1-3-2.885,2.789,2.789,0,0,1,3-2.885,2.706,2.706,0,0,1,2.151,1.1ZM41.8,9.83h2.549V19.875H41.8V9.83Zm38.079-.267A3.311,3.311,0,0,0,77.3,10.632V5H74.75V19.875H76.9a.381.381,0,0,0,.371-.374v-.454a3.282,3.282,0,0,0,2.576,1.1A5.114,5.114,0,0,0,85,14.853a5.11,5.11,0,0,0-5.125-5.29Zm-.425,8.148a2.6,2.6,0,0,1-2.151-1.1v-3.58a2.877,2.877,0,0,1,2.151-1.1,2.788,2.788,0,0,1,3,2.885A2.788,2.788,0,0,1,79.451,17.711Zm-6.028-3.793V19.9h-2.55v-5.69c0-1.656-.531-2.324-1.964-2.324a2.847,2.847,0,0,0-2.072.989v7H64.289V9.831h2.017a.381.381,0,0,1,.372.374v.427a3.646,3.646,0,0,1,2.708-1.069,4.12,4.12,0,0,1,2.789.962c.9.748,1.248,1.709,1.248,3.393ZM58.1,9.563a3.31,3.31,0,0,0-2.576,1.069V5H52.976V19.875h2.151A.381.381,0,0,0,55.5,19.5v-.454a3.282,3.282,0,0,0,2.576,1.1,5.114,5.114,0,0,0,5.152-5.289A5.078,5.078,0,0,0,58.1,9.563Zm-.425,8.148a2.6,2.6,0,0,1-2.151-1.1v-3.58a2.876,2.876,0,0,1,2.151-1.1,2.788,2.788,0,0,1,3,2.885A2.788,2.788,0,0,1,57.676,17.711Zm-6.9-8.148A4.032,4.032,0,0,1,51.94,9.7v2.377a3.391,3.391,0,0,0-3.452.8V19.9h-2.55V9.83H48.09a.381.381,0,0,1,.371.374v.427a3.481,3.481,0,0,1,2.311-1.069ZM24.3,18.966c-.133-.32-.266-.668-.4-.962-.213-.481-.425-.935-.611-1.362l-.027-.027c-1.833-4.007-3.8-8.067-5.869-12.074l-.08-.161q-.327-.623-.637-1.256a7.692,7.692,0,0,0-.956-1.469A4.28,4.28,0,0,0,12.35,0a4.446,4.446,0,0,0-3.4,1.6,9.165,9.165,0,0,0-.956,1.469q-.311.632-.637,1.256l-.08.161C5.233,8.495,3.242,12.555,1.41,16.562l-.027.053c-.186.428-.4.882-.611,1.362q-.2.441-.4.962a6.027,6.027,0,0,0-.319,2.885,5.671,5.671,0,0,0,3.452,4.434,5.422,5.422,0,0,0,2.151.427,5.96,5.96,0,0,0,.691-.054A6.986,6.986,0,0,0,9,25.725,13.466,13.466,0,0,0,12.3,22.947a13.972,13.972,0,0,0,3.293,2.778,6.988,6.988,0,0,0,2.655.908,5.9,5.9,0,0,0,.691.054,5.328,5.328,0,0,0,2.151-.427,5.661,5.661,0,0,0,3.452-4.434,5.089,5.089,0,0,0-.24-2.858ZM12.323,20.355a13.2,13.2,0,0,1-2.682-4.968,4.334,4.334,0,0,1-.08-1.63,2.6,2.6,0,0,1,.425-1.122,2.815,2.815,0,0,1,2.337-1.175,2.714,2.714,0,0,1,2.337,1.175,2.608,2.608,0,0,1,.425,1.122,4.324,4.324,0,0,1-.08,1.63A13.628,13.628,0,0,1,12.323,20.355Zm10.594,1.256A3.964,3.964,0,0,1,18.483,25a5.208,5.208,0,0,1-2.018-.694,12.426,12.426,0,0,1-3.027-2.591,15.1,15.1,0,0,0,3.213-5.9,6.722,6.722,0,0,0,.133-2.271,4.346,4.346,0,0,0-.717-1.816,4.467,4.467,0,0,0-3.744-1.9,4.534,4.534,0,0,0-3.744,1.9,4.35,4.35,0,0,0-.717,1.816,5.581,5.581,0,0,0,.133,2.271,15.53,15.53,0,0,0,3.213,5.93A11.946,11.946,0,0,1,8.18,24.336a5.192,5.192,0,0,1-2.018.694,4.225,4.225,0,0,1-2.018-.267,3.966,3.966,0,0,1-2.416-3.126,4.444,4.444,0,0,1,.239-2.083c.079-.267.212-.534.345-.855.186-.428.4-.882.611-1.336l.027-.053c1.832-3.98,3.8-8.041,5.842-11.994l.08-.161c.213-.4.425-.828.637-1.229a5.87,5.87,0,0,1,.744-1.176,2.777,2.777,0,0,1,4.249,0,5.915,5.915,0,0,1,.744,1.176c.213.4.425.828.637,1.229l.08.161q3.02,5.954,5.815,12.02v.027c.213.428.4.908.611,1.336.133.32.266.587.345.854a4.54,4.54,0,0,1,.185,2.056Z" transform="translate(170 634)" fill="#666"/>
  </g>
</svg>
