<svg xmlns="http://www.w3.org/2000/svg" width="96" height="16.364" viewBox="0 0 96 16.364">
  <g id="Review" transform="translate(-583 -213)">
    <path id="Star_1" data-name="Star 1" d="M8.492.656a.25.25,0,0,1,.471,0l1.889,5.268a.25.25,0,0,0,.229.166l5.659.143a.25.25,0,0,1,.144.449L12.4,10.071a.25.25,0,0,0-.089.272l1.61,5.346a.25.25,0,0,1-.38.279L8.868,12.8a.25.25,0,0,0-.281,0L3.916,15.968a.25.25,0,0,1-.38-.279l1.61-5.346a.25.25,0,0,0-.089-.272L.571,6.682a.25.25,0,0,1,.144-.449L6.374,6.09A.25.25,0,0,0,6.6,5.924Z" transform="translate(583 213)" fill="#fbb040"/>
    <path id="Star_2" data-name="Star 2" d="M8.492.656a.25.25,0,0,1,.471,0l1.889,5.268a.25.25,0,0,0,.229.166l5.659.143a.25.25,0,0,1,.144.449L12.4,10.071a.25.25,0,0,0-.089.272l1.61,5.346a.25.25,0,0,1-.38.279L8.868,12.8a.25.25,0,0,0-.281,0L3.916,15.968a.25.25,0,0,1-.38-.279l1.61-5.346a.25.25,0,0,0-.089-.272L.571,6.682a.25.25,0,0,1,.144-.449L6.374,6.09A.25.25,0,0,0,6.6,5.924Z" transform="translate(602.636 213)" fill="#fbb040"/>
    <path id="Star_3" data-name="Star 3" d="M8.492.656a.25.25,0,0,1,.471,0l1.889,5.268a.25.25,0,0,0,.229.166l5.659.143a.25.25,0,0,1,.144.449L12.4,10.071a.25.25,0,0,0-.089.272l1.61,5.346a.25.25,0,0,1-.38.279L8.868,12.8a.25.25,0,0,0-.281,0L3.916,15.968a.25.25,0,0,1-.38-.279l1.61-5.346a.25.25,0,0,0-.089-.272L.571,6.682a.25.25,0,0,1,.144-.449L6.374,6.09A.25.25,0,0,0,6.6,5.924Z" transform="translate(622.273 213)" fill="#fbb040"/>
    <path id="Star_4" data-name="Star 4" d="M8.492.656a.25.25,0,0,1,.471,0l1.889,5.268a.25.25,0,0,0,.229.166l5.659.143a.25.25,0,0,1,.144.449L12.4,10.071a.25.25,0,0,0-.089.272l1.61,5.346a.25.25,0,0,1-.38.279L8.868,12.8a.25.25,0,0,0-.281,0L3.916,15.968a.25.25,0,0,1-.38-.279l1.61-5.346a.25.25,0,0,0-.089-.272L.571,6.682a.25.25,0,0,1,.144-.449L6.374,6.09A.25.25,0,0,0,6.6,5.924Z" transform="translate(641.909 213)" fill="#fbb040"/>
    <path id="Star_5" data-name="Star 5" d="M8.492.656a.25.25,0,0,1,.471,0l1.889,5.268a.25.25,0,0,0,.229.166l5.659.143a.25.25,0,0,1,.144.449L12.4,10.071a.25.25,0,0,0-.089.272l1.61,5.346a.25.25,0,0,1-.38.279L8.868,12.8a.25.25,0,0,0-.281,0L3.916,15.968a.25.25,0,0,1-.38-.279l1.61-5.346a.25.25,0,0,0-.089-.272L.571,6.682a.25.25,0,0,1,.144-.449L6.374,6.09A.25.25,0,0,0,6.6,5.924Z" transform="translate(661.545 213)" fill="#fbb040"/>
  </g>
</svg>
