<svg xmlns="http://www.w3.org/2000/svg" width="21" height="158" viewBox="0 0 21 158">
  <g id="Social_Icons" data-name="Social Icons" transform="translate(-1383 -367)">
    <g id="x30_1._Facebook" data-name="x30 1. Facebook">
      <path id="Icon_11" data-name="Icon 11" d="M3.12,11.726H.546C.13,11.726,0,11.57,0,11.18V8.034c0-.416.156-.546.546-.546H3.12V5.2a5.775,5.775,0,0,1,.7-2.938A4.314,4.314,0,0,1,6.136.338a5.785,5.785,0,0,1,2-.338h2.548c.364,0,.52.156.52.52V3.484c0,.364-.156.52-.52.52-.7,0-1.4,0-2.106.026A.939.939,0,0,0,7.514,5.1c-.026.78,0,1.534,0,2.34H10.53c.416,0,.572.156.572.572v3.146c0,.416-.13.546-.572.546H7.514v8.476c0,.442-.13.6-.6.6H3.666c-.39,0-.546-.156-.546-.546v-8.5Z" transform="translate(1387.999 367)"/>
    </g>
    <g id="Group">
      <g id="Group-2" data-name="Group">
        <path id="Vector" d="M18.923,1.82a8.088,8.088,0,0,1-2.235.613A3.858,3.858,0,0,0,18.394.289a7.753,7.753,0,0,1-2.46.939A3.879,3.879,0,0,0,9.224,3.88a4,4,0,0,0,.09.885,10.981,10.981,0,0,1-8-4.058A3.88,3.88,0,0,0,2.51,5.892,3.831,3.831,0,0,1,.757,5.414v.043A3.9,3.9,0,0,0,3.865,9.269,3.872,3.872,0,0,1,2.848,9.4a3.43,3.43,0,0,1-.734-.066,3.916,3.916,0,0,0,3.625,2.7,7.8,7.8,0,0,1-4.81,1.655A7.266,7.266,0,0,1,0,13.634a10.922,10.922,0,0,0,5.951,1.741A10.965,10.965,0,0,0,16.993,4.336c0-.171-.006-.337-.014-.5A7.739,7.739,0,0,0,18.923,1.82Z" transform="translate(1384.537 464)"/>
      </g>
    </g>
    <g id="Group-3" data-name="Group">
      <g id="Group-4" data-name="Group">
        <path id="Vector-2" data-name="Vector" d="M15.75,0H5.25A5.266,5.266,0,0,0,0,5.25v10.5A5.266,5.266,0,0,0,5.25,21h10.5A5.266,5.266,0,0,0,21,15.75V5.25A5.266,5.266,0,0,0,15.75,0Zm3.5,15.75a3.5,3.5,0,0,1-3.5,3.5H5.25a3.5,3.5,0,0,1-3.5-3.5V5.25a3.5,3.5,0,0,1,3.5-3.5h10.5a3.5,3.5,0,0,1,3.5,3.5Z" transform="translate(1383 414)"/>
      </g>
    </g>
    <g id="Group-5" data-name="Group">
      <g id="Group-6" data-name="Group">
        <path id="Vector-3" data-name="Vector" d="M2.625,1.312A1.312,1.312,0,1,1,1.312,0,1.312,1.312,0,0,1,2.625,1.312Z" transform="translate(1397.875 417.5)"/>
      </g>
    </g>
    <g id="Group-7" data-name="Group">
      <g id="Group-8" data-name="Group">
        <path id="Vector-4" data-name="Vector" d="M5.25,0A5.25,5.25,0,1,0,10.5,5.25,5.249,5.249,0,0,0,5.25,0Zm0,8.75a3.5,3.5,0,1,1,3.5-3.5A3.5,3.5,0,0,1,5.25,8.75Z" transform="translate(1387.999 419.25)"/>
      </g>
    </g>
    <g id="linkedin-logo" transform="translate(1383.999 507)">
      <g id="Group-9" data-name="Group">
        <g id="post_linkedin" data-name="post linkedin">
          <path id="Vector-5" data-name="Vector" d="M17.1,0H1.9A1.857,1.857,0,0,0,0,1.8V16.2A1.857,1.857,0,0,0,1.9,18H17.1A1.857,1.857,0,0,0,19,16.2V1.8A1.857,1.857,0,0,0,17.1,0ZM5.7,15.3H2.85V7.2H5.7ZM4.275,5.67a1.66,1.66,0,0,1-1.71-1.62,1.66,1.66,0,0,1,1.71-1.62,1.66,1.66,0,0,1,1.71,1.62A1.66,1.66,0,0,1,4.275,5.67ZM16.15,15.3H13.3V10.53a1.427,1.427,0,0,0-2.85,0V15.3H7.6V7.2h2.85V8.28a3.112,3.112,0,0,1,2.375-1.26,3.281,3.281,0,0,1,3.325,3.15Z"/>
        </g>
      </g>
    </g>
  </g>
</svg>
